<svg width="80" height="80" viewBox="0 0 80 80" fill="none" xmlns="http://www.w3.org/2000/svg">
<rect x="21.5" y="21.5" width="16" height="16" stroke="black"/>
<rect x="42.5" y="21.5" width="16" height="16" stroke="black"/>
<rect x="21.5" y="42.5" width="16" height="16" stroke="black"/>
<rect x="27.5" y="27.5" width="4" height="4" stroke="black"/>
<rect x="48.5" y="27.5" width="4" height="4" stroke="black"/>
<rect x="27.5" y="48.5" width="4" height="4" stroke="black"/>
<path d="M12.5 24V12.5H24" stroke="black"/>
<path d="M24 66.5L12.5 66.5L12.5 55" stroke="black"/>
<path d="M54 12.5L66.5 12.5V25" stroke="black"/>
<path d="M66.5 55L66.5 66.5L55 66.5" stroke="black"/>
<rect x="42.5" y="42.5" width="7" height="7" stroke="black"/>
<rect x="53.5" y="42.5" width="5" height="5" stroke="black"/>
<rect x="42.5" y="53.5" width="5" height="5" stroke="black"/>
<path d="M53 52.5V49.5H58.5V58.5H49.5V53H52.5H53V52.5Z" stroke="black"/>
</svg>
